# xmcd
#
# Track frame offsets: 
#        150
#        14090
#        48410
#        65113
#        100263
#        139870
#        164008
#        199228
#        214740
#        243598
#        271573
#
# Disc length: 4349 seconds
#
# Revision: 5
# Processed by: cddbd v1.5.2PL0 Copyright (c) Steve Scherf et al.
# Submitted via: ExactAudioCopy v1.0b3
#
DISCID=a910fb0b
DTITLE=Jimi Hendrix - Blues
DYEAR=1994
DGENRE=Rock
TTITLE0=Hear My Train Comin' (acoustic)
TTITLE1=Born Under A Bad Sign
TTITLE2=Red House
TTITLE3=Catfish Blues
TTITLE4=Voodoo Chile Blues
TTITLE5=Mannish Boy
TTITLE6=Once I Had A Woman
TTITLE7=Bleeding Heart
TTITLE8=Jelly 292
TTITLE9=Electric Church Red House
TTITLE10=Hear My Train Comin' (electric)
EXTD=
EXTT0=
EXTT1=
EXTT2=
EXTT3=
EXTT4=
EXTT5=
EXTT6=
EXTT7=
EXTT8=
EXTT9=
EXTT10=
PLAYORDER=
